<?xml version="1.0" encoding="utf-8"?>
<svg xmlns="http://www.w3.org/2000/svg" viewBox="0 0 48 48" width="512" height="512">
  <path d="M42.470703 3.9863281 A 1.50015 1.50015 0 0 0 41.439453 4.4394531L4.4394531 41.439453 A 1.50015 1.50015 0 1 0 6.5605469 43.560547L8.8261719 41.294922C9.6185317 41.739615 10.528103 42 11.5 42L36.5 42C39.532 42 42 39.533 42 36.5L42 11.5C42 10.528103 41.739615 9.6187675 41.294922 8.8261719L43.560547 6.5605469 A 1.50015 1.50015 0 0 0 42.470703 3.9863281 z M 11.5 6C8.468 6 6 8.467 6 11.5L6 35.65625L9 32.65625L9 11.5C9 10.122 10.121 9 11.5 9L32.65625 9L35.65625 6L11.5 6 z M 38.966797 11.154297C38.982761 11.267921 39 11.381911 39 11.5L39 36.5C39 36.694563 38.971953 36.882535 38.929688 37.064453L27.181641 25.318359C26.761614 24.898333 26.275172 24.583029 25.755859 24.365234L28.566406 21.554688C29.151509 21.838057 29.806076 22 30.5 22C32.981 22 35 19.981 35 17.5C35 16.806076 34.838057 16.151509 34.554688 15.566406L38.966797 11.154297 z M 24 26.990234C24.38049 26.990234 24.760979 27.139886 25.060547 27.439453L36.609375 38.988281C36.572334 38.989918 36.537438 39 36.5 39L11.5 39C11.461908 39 11.426334 38.98998 11.388672 38.988281L22.939453 27.439453C23.239021 27.139886 23.61951 26.990234 24 26.990234 z" fill="#737373" />
</svg>